Coordinates
version=1
nRows=17
nColumns=34
inDegrees=yes

Units are S.I. units (second, meters, Newtons, ...)
If the header above contains a line with 'inDegrees', this indicates whether rotational values are in degrees (yes) or radians (no).

endheader
time	pelvis_tilt	pelvis_list	pelvis_rotation	pelvis_tx	pelvis_ty	pelvis_tz	hip_flexion_r	hip_adduction_r	hip_rotation_r	knee_angle_r	ankle_angle_r	subtalar_angle_r	mtp_angle_r	hip_flexion_l	hip_adduction_l	hip_rotation_l	knee_angle_l	ankle_angle_l	subtalar_angle_l	mtp_angle_l	lumbar_extension	lumbar_bending	lumbar_rotation	arm_flex_r	arm_add_r	arm_rot_r	elbow_flex_r	pro_sup_r	arm_flex_l	arm_add_l	arm_rot_l	elbow_flex_l	pro_sup_l
      0.81666670	     26.91174179	    -32.39773046	     -7.42250991	      1.00946449	      1.05481034	     -0.51539106	    -30.00000025	     30.00000025	     -3.82250101	      0.00000000	    -18.13139995	    -35.00000000	      0.00000000	      0.08789696	    -24.32567999	      8.94613088	     61.44727849	     26.33496304	      9.53985115	      0.00000000	    -90.00000018	     19.17256337	     16.18046792	     28.17788857	      4.05189458	    -14.77495734	     39.52638830	    119.74817918	     27.32448380	      4.34081711	    -13.89542720	     42.57820707	    115.43817609
      0.83333330	     26.87456673	    -32.37333434	     -7.51411791	      1.01073538	      1.05382201	     -0.51160933	    -30.00000025	     30.00000025	     -3.87738070	      0.00000000	    -18.14566226	    -35.00000000	      0.00000000	      0.15132518	    -24.20746216	      9.19313593	     61.60268913	     26.09490638	      9.59471531	      0.00000000	    -90.00000018	     19.09285804	     16.14266825	     28.20907647	      4.04470829	    -14.75778825	     39.53170600	    119.74817918	     27.29515824	      4.26765086	    -13.88216741	     42.49971878	    115.47822999
      0.85000000	     26.85581747	    -32.33577088	     -7.62597146	      1.01255557	      1.05373364	     -0.50763953	    -30.00000025	     30.00000025	     -4.01270875	      0.00000000	    -18.24032581	    -35.00000000	      0.00000000	      0.18143640	    -24.13909291	      9.38529451	     61.77171764	     26.02416896	      9.53863818	      0.00000000	    -90.00000018	     18.97585373	     16.08657074	     28.19593159	      4.06309618	    -14.73910483	     39.51038065	    119.74817918	     27.34170436	      4.20135763	    -13.86509017	     42.44170249	    115.51626268
      0.86666670	     26.83502266	    -32.32048365	     -7.77996917	      1.01394102	      1.05373993	     -0.50387604	    -30.00000025	     30.00000025	     -4.17855944	      0.00000000	    -18.38387812	    -35.00000000	      0.00000000	      0.22595872	    -24.06708009	      9.59130029	     62.00006735	     25.98476606	      9.46429338	      0.00000000	    -90.00000018	     18.81650319	     16.02617560	     28.17009899	      4.08830138	    -14.72305684	     39.47395228	    119.74817918	     27.40874064	      4.13594404	    -13.84684617	     42.38549733	    115.55198553
      0.88333330	     27.10826738	    -32.10810184	     -7.33384148	      1.01513375	      1.05521528	     -0.50146002	    -30.00000025	     30.00000025	     -5.47779680	      0.00000000	    -19.65209262	    -35.00000000	      0.00000000	      0.06135915	    -23.42150621	     10.69694339	     61.86946042	     25.26291364	      7.57916687	      0.00000000	    -90.00000018	     18.92465234	     15.87230274	     28.24711740	      4.01476418	    -14.55611134	     38.79524311	    119.74817918	     27.84001543	      3.96028734	    -13.25926155	     41.52091351	    116.26472073
      0.90000000	     27.10584943	    -32.02573775	     -7.44066896	      1.01588271	      1.05550113	     -0.49758101	    -30.00000025	     30.00000025	     -5.03152350	      0.00000000	    -18.97612835	    -35.00000000	      0.00000000	     -0.00076556	    -23.27572168	     10.97093889	     61.89214341	     25.30684532	      7.22264117	      0.00000000	    -90.00000018	     18.52802488	     15.79022990	     28.18670578	      4.15090976	    -14.52854557	     38.71779419	    119.74817918	     28.00391161	      3.77559584	    -13.19320603	     41.41694204	    116.39877867
      0.91666670	     27.00107879	    -31.96035406	     -7.64114270	      1.01726456	      1.05695347	     -0.49441189	    -30.00000025	     30.00000025	     -4.44249595	      0.00000000	    -18.09991613	    -35.00000000	      0.00000000	     -0.15964715	    -23.08973089	     11.29385343	     61.76698909	     25.70656021	      6.66838869	      0.00000000	    -90.00000018	     18.45473467	     15.73489329	     28.13715837	      4.17657084	    -14.54121019	     38.61079738	    119.74817918	     27.98858309	      3.74822366	    -13.07679050	     41.27732150	    116.54902478
      0.93333330	     26.95330966	    -31.82847809	     -7.68589473	      1.01850511	      1.05711773	     -0.49092253	    -30.00000025	     30.00000025	     -4.41564066	      0.00000000	    -18.06250428	    -35.00000000	      0.00000000	     -0.18251224	    -23.07003389	     11.31543525	     61.77074781	     25.72666169	      6.64817377	      0.00000000	    -90.00000018	     18.46162117	     15.70044441	     28.12855358	      4.15900044	    -14.54645267	     38.60545374	    119.74817918	     28.00363380	      3.76256133	    -13.06888712	     41.27640217	    116.55434891
      0.95000000	     26.76305679	    -31.78235880	     -7.87901387	      1.02041786	      1.05654522	     -0.48736988	    -30.00000025	     30.00000025	     -3.22667953	      0.00000000	    -16.68838465	    -35.00000000	      0.00000000	     -0.26557635	    -22.83983227	     11.85437960	     61.74356650	     26.48161759	      5.76617243	      0.00000000	    -90.00000018	     18.43864784	     15.48048218	     28.06273999	      4.23714989	    -14.58044168	     38.52458375	    119.74817918	     27.95812212	      3.64937448	    -12.92348297	     41.04518903	    116.75578269
      0.96666670	     26.53484343	    -31.69403356	     -8.12927342	      1.02211678	      1.05634883	     -0.48412062	    -30.00000025	     30.00000025	     -3.22944485	      0.00000000	    -16.58450263	    -35.00000000	      0.00000000	     -0.31764224	    -22.77957060	     11.98318201	     61.68062000	     26.49168532	      5.68495059	      0.00000000	    -90.00000018	     18.39975567	     15.44080748	     27.96246932	      4.24107249	    -14.58781428	     38.47756026	    119.74817918	     27.83162588	      3.63466172	    -12.90006422	     40.95881564	    116.79221777
      0.98333330	     26.30988009	    -31.65228853	     -8.43704329	      1.02207206	      1.05565766	     -0.48261459	    -30.00000025	     30.00000025	     -2.86272862	      0.00000000	    -15.97248545	    -35.00000000	      0.00000000	     -0.29103458	    -22.79088376	     12.00203051	     61.73285920	     27.02106095	      4.79075779	      0.00000000	    -90.00000018	     18.37029852	     15.30126301	     28.04223858	      4.32633676	    -14.57769744	     38.39189547	    119.74817918	     27.76080569	      3.53174386	    -12.77342763	     40.62258942	    116.98482774
      1.00000000	     26.26440318	    -31.55293083	     -8.58767924	      1.01960332	      1.05062036	     -0.48126300	    -30.00000025	     30.00000025	     -2.82202421	      0.00000000	    -15.85985270	    -35.00000000	      0.00000000	     -0.13185641	    -22.74823973	     12.06040003	     61.99809975	     27.02197445	      4.66687071	      0.00000000	    -90.00000018	     18.29679787	     15.28513987	     28.06146995	      4.34539997	    -14.56817921	     38.37359625	    119.74817918	     27.79571225	      3.50060679	    -12.75339187	     40.57738863	    117.01432110
      1.01666670	     35.07965899	    -37.78471374	    -10.07542107	      1.00298312	      1.03866823	     -0.48363005	    -30.00000025	     30.00000025	     -5.88842051	     23.41373981	     -5.52214667	    -35.00000000	      0.00000000	    -11.28580204	    -28.95235059	      2.36677169	     64.49654798	     30.95191533	      9.29085555	      0.00000000	    -90.00000018	     14.87518833	     17.70171104	     26.62430422	      3.68603885	    -14.64260694	     33.15952014	    119.74817918	     26.28557077	      4.15785920	    -12.26238601	     34.97871004	    115.76472257
      1.03333330	     35.70713718	    -38.04383149	     -9.85155781	      1.00350229	      1.03816719	     -0.48342855	    -30.00000025	     30.00000025	     -6.58951184	     24.77599468	     -5.49331560	    -35.00000000	      0.00000000	    -11.44312438	    -29.28617851	      2.14063246	     65.27968413	     30.72444817	      8.92634631	      0.00000000	    -90.00000018	     14.84718062	     17.84956475	     26.59855449	      3.68693567	    -14.55414197	     33.03404342	    119.74817918	     26.25653972	      4.21845052	    -12.14678883	     34.79872223	    115.91104449
      1.05000000	     35.68726197	    -38.39453731	    -10.19996353	      1.00566615	      1.03780554	     -0.48213693	    -29.22023978	     30.00000025	     -6.97607249	     26.96249100	     -4.72622721	    -35.00000000	      0.00000000	    -11.00601255	    -29.40105090	      2.30478274	     66.47815534	     28.50081871	      5.49591592	      0.00000000	    -90.00000018	     15.05010725	     18.15904812	     26.58444523	      3.25774602	    -14.02800107	     32.62580256	    119.74817918	     26.39463762	      4.33736421	    -11.31569155	     33.89195351	    117.23204788
      1.06666670	    -76.15205994	     25.37453160	    -14.48647387	      1.01068907	      0.85418167	     -0.46004880	    113.90824282	      9.21798771	    -12.06133636	     56.72519832	      1.22708450	    -35.00000000	      0.00000000	    119.99999986	     -3.30787465	      9.87954666	     69.97273293	     -1.37977340	    -35.00000000	      0.00000000	     90.00000018	      9.70513170	      1.01652817	    -17.21067585	      2.44094373	    -14.15908583	     18.22430243	    119.29988667	    -12.05003624	      3.40437828	      4.18915406	     14.11944050	    119.58780756
      1.08333330	    -75.36333076	     24.84104371	    -15.92286683	      1.01548753	      0.85891980	     -0.45542008	    112.93915957	      9.93458891	    -13.25757768	     56.77920604	      0.34458610	    -35.00000000	      0.00000000	    119.99999986	     -4.12556829	     10.43057587	     71.48656777	     -2.07555290	    -35.00000000	      0.00000000	     90.00000018	     11.21617002	      1.02698360	    -17.35901607	      2.16969803	    -14.75449170	     16.93361612	    119.64226247	    -12.07861345	      3.88768907	      4.41017671	     13.51147432	    118.72070541
